<?xml version="1.0" standalone="no"?>
<svg xmlns:xlink="http://www.w3.org/1999/xlink" id="wave" style="transform:rotate(0deg); transition: 0.3s" viewBox="0 0 1440 290" version="1.1" xmlns="http://www.w3.org/2000/svg"><defs><linearGradient id="sw-gradient-0" x1="0" x2="0" y1="1" y2="0"><stop stop-color="rgba(29, 127, 212, 1)" offset="0%"/><stop stop-color="rgba(11, 50, 85, 1)" offset="100%"/></linearGradient></defs><path style="transform:translate(0, 0px); opacity:1" fill="url(#sw-gradient-0)" d="M0,232L20,212.7C40,193,80,155,120,154.7C160,155,200,193,240,203C280,213,320,193,360,193.3C400,193,440,213,480,203C520,193,560,155,600,145C640,135,680,155,720,169.2C760,184,800,193,840,198.2C880,203,920,203,960,188.5C1000,174,1040,145,1080,125.7C1120,106,1160,97,1200,91.8C1240,87,1280,87,1320,72.5C1360,58,1400,29,1440,33.8C1480,39,1520,77,1560,96.7C1600,116,1640,116,1680,135.3C1720,155,1760,193,1800,178.8C1840,164,1880,97,1920,67.7C1960,39,2000,48,2040,58C2080,68,2120,77,2160,91.8C2200,106,2240,126,2280,125.7C2320,126,2360,106,2400,87C2440,68,2480,48,2520,77.3C2560,106,2600,184,2640,217.5C2680,251,2720,242,2760,207.8C2800,174,2840,116,2860,87L2880,58L2880,290L2860,290C2840,290,2800,290,2760,290C2720,290,2680,290,2640,290C2600,290,2560,290,2520,290C2480,290,2440,290,2400,290C2360,290,2320,290,2280,290C2240,290,2200,290,2160,290C2120,290,2080,290,2040,290C2000,290,1960,290,1920,290C1880,290,1840,290,1800,290C1760,290,1720,290,1680,290C1640,290,1600,290,1560,290C1520,290,1480,290,1440,290C1400,290,1360,290,1320,290C1280,290,1240,290,1200,290C1160,290,1120,290,1080,290C1040,290,1000,290,960,290C920,290,880,290,840,290C800,290,760,290,720,290C680,290,640,290,600,290C560,290,520,290,480,290C440,290,400,290,360,290C320,290,280,290,240,290C200,290,160,290,120,290C80,290,40,290,20,290L0,290Z"/></svg>